<svg xmlns="http://www.w3.org/2000/svg" width="26" height="26" fill="none" viewBox="0 0 26 26">
    <circle cx="13" cy="13" r="12.5" fill="#fff" stroke="#DEDEDE"/>
    <path fill="#3C3C3C" d="M16.737 9.174c-.167-.17-.438-.17-.606 0L13 12.363 9.868 9.174c-.167-.17-.438-.17-.606 0-.167.17-.167.447 0 .618l3.132 3.188-3.132 3.188c-.167.17-.167.447 0 .617.168.17.439.17.606 0L13 13.597l3.131 3.188c.168.17.439.17.606 0 .168-.17.168-.446 0-.617l-3.131-3.188 3.131-3.188c.168-.17.168-.447 0-.618z"/>
</svg>
