<?xml version="1.0" standalone="no"?>
<!DOCTYPE svg PUBLIC "-//W3C//DTD SVG 20010904//EN"
 "http://www.w3.org/TR/2001/REC-SVG-20010904/DTD/svg10.dtd">
<svg version="1.0" xmlns="http://www.w3.org/2000/svg"
 width="638.000000pt" height="1012.000000pt" viewBox="0 0 638.000000 1012.000000"
 preserveAspectRatio="xMidYMid meet">
<metadata>
Created by potrace 1.16, written by Peter Selinger 2001-2019
</metadata>
<g transform="translate(0.000000,1012.000000) scale(0.100000,-0.100000)"
fill="#000000" stroke="none">
<path d="M2790 9884 c-79 -14 -180 -40 -180 -46 0 -5 -5 -8 -11 -8 -29 0 -97
-46 -131 -88 -29 -36 -38 -56 -38 -84 0 -21 -3 -38 -7 -38 -4 0 -27 10 -51 21
-108 53 -291 -13 -437 -157 -91 -90 -100 -106 -100 -195 0 -62 4 -81 19 -98
l19 -21 -105 0 c-83 0 -115 -4 -150 -20 -92 -40 -125 -104 -115 -217 6 -59 35
-134 57 -148 25 -16 8 -33 -38 -37 -118 -11 -256 -120 -322 -253 -24 -50 -33
-140 -20 -205 4 -22 1 -26 -34 -35 -76 -18 -129 -98 -141 -211 -8 -67 -8 -68
-75 -135 -52 -51 -68 -75 -73 -104 -7 -45 2 -125 14 -125 5 0 9 -4 9 -9 0 -5
-17 -11 -38 -15 -38 -6 -132 -76 -132 -98 0 -5 -7 -24 -15 -41 -21 -47 -45
-189 -45 -268 0 -69 17 -139 47 -193 15 -28 15 -30 -2 -40 -41 -24 -103 -95
-128 -147 -33 -70 -47 -156 -47 -284 0 -171 17 -240 77 -306 l23 -25 -27 -50
c-25 -45 -27 -59 -28 -160 0 -105 5 -131 36 -184 5 -8 13 -25 19 -37 19 -44
99 -159 137 -196 76 -75 160 -96 308 -78 176 21 243 52 283 131 25 49 28 109
12 205 -6 33 -15 87 -20 120 -13 76 -39 163 -59 195 -8 14 -33 41 -55 61 l-39
37 29 38 c66 86 86 154 85 288 -1 108 -26 266 -43 266 -4 0 -8 9 -8 20 0 11 3
20 8 20 16 0 71 58 96 101 42 74 65 157 66 235 0 69 -20 141 -42 155 -14 9 0
29 20 29 30 1 112 89 112 121 1 8 9 32 20 54 11 22 19 46 20 53 0 16 18 48 51
92 58 76 70 136 44 210 -17 47 -13 60 17 60 42 0 133 66 178 129 45 63 60 118
60 222 0 68 -4 101 -15 115 -28 37 -19 44 55 44 58 0 77 4 110 25 99 63 134
197 86 335 -8 24 -13 46 -11 49 3 2 17 -2 32 -9 55 -25 159 -50 208 -50 118 1
183 91 191 262 2 44 5 82 7 84 2 2 28 -20 58 -49 55 -54 110 -85 187 -108 37
-11 51 -10 99 5 31 10 61 22 67 27 52 44 68 61 99 107 20 29 39 69 43 88 6 32
34 50 34 22 0 -7 14 -40 31 -73 39 -79 111 -145 182 -169 54 -18 57 -18 124 0
37 10 74 24 81 31 7 7 17 13 22 13 5 0 37 28 70 62 l62 62 -7 -36 c-8 -41 19
-187 43 -233 32 -64 84 -95 155 -95 45 0 172 31 207 50 31 17 34 7 15 -51 -13
-38 -16 -72 -13 -128 7 -101 33 -149 105 -194 35 -22 54 -27 108 -27 36 0 65
-2 65 -5 0 -2 -7 -30 -15 -62 -35 -135 -5 -258 88 -356 41 -43 112 -87 140
-87 24 0 39 -24 24 -39 -7 -7 -12 -40 -12 -84 0 -74 14 -110 62 -162 10 -11
29 -49 42 -85 52 -147 101 -220 148 -220 27 0 29 -17 8 -47 -26 -37 -36 -117
-24 -201 6 -42 15 -78 20 -80 5 -2 9 -11 9 -20 0 -30 41 -96 87 -140 l45 -43
-12 -42 c-26 -95 -32 -149 -28 -286 2 -104 6 -146 16 -149 6 -2 12 -12 12 -22
0 -10 18 -42 40 -71 l39 -52 -44 -41 c-65 -61 -84 -114 -120 -331 -9 -49 -18
-105 -21 -123 -13 -66 37 -169 97 -203 62 -35 253 -64 352 -54 52 5 127 37
135 57 2 4 9 8 15 8 17 1 119 143 157 219 72 141 77 255 16 393 -16 36 -15 39
4 55 11 10 20 23 20 30 0 7 4 13 9 13 20 0 44 117 49 232 9 222 -47 373 -171
461 -18 13 -18 15 5 63 21 44 23 62 23 194 0 114 -4 158 -19 208 -11 34 -23
62 -28 62 -4 0 -8 7 -8 15 0 26 -66 83 -111 96 -24 7 -45 14 -47 15 -2 1 4 19
12 39 35 83 10 142 -98 229 -27 22 -36 37 -36 60 0 40 -32 166 -42 166 -4 0
-8 6 -8 14 0 23 -56 70 -97 81 -35 10 -38 13 -33 40 18 105 -5 186 -76 281
-78 102 -193 174 -280 174 -40 0 -40 1 -15 49 56 106 66 180 34 249 -21 47
-62 92 -83 92 -9 0 -25 7 -36 15 -14 10 -48 14 -127 15 l-109 0 21 36 c22 36
31 144 12 144 -5 0 -12 11 -15 25 -11 43 -119 157 -181 191 -11 6 -46 25 -77
42 -86 47 -167 63 -230 46 -28 -7 -54 -18 -58 -25 -10 -16 -30 -2 -30 20 0 38
-31 90 -77 130 -26 22 -52 41 -58 41 -5 0 -23 7 -38 15 -15 8 -45 17 -65 21
-20 4 -43 11 -50 17 -7 5 -70 11 -140 11 -107 1 -135 -2 -172 -19 -49 -21 -67
-35 -91 -72 -15 -23 -18 -23 -30 -8 -64 76 -108 96 -223 100 -50 2 -102 2
-116 -1z m220 -58 c87 -39 101 -76 102 -258 0 -149 -10 -197 -64 -296 -55
-102 -107 -137 -204 -136 -62 1 -79 5 -115 28 -53 35 -119 98 -119 113 0 6 -4
13 -8 15 -17 7 -70 107 -92 173 -12 39 -27 78 -31 87 -15 31 -10 117 8 146 37
56 113 99 223 125 36 9 74 18 85 21 38 10 180 -2 215 -18z m545 4 c28 -7 64
-18 80 -25 17 -8 40 -16 53 -20 12 -3 22 -11 22 -16 0 -5 5 -9 11 -9 19 0 70
-59 80 -92 9 -33 -2 -131 -20 -173 -5 -11 -19 -45 -31 -75 -23 -57 -88 -160
-124 -196 -12 -12 -46 -36 -75 -55 -48 -29 -64 -33 -121 -33 -111 0 -177 56
-230 196 -39 102 -49 273 -24 396 9 44 51 85 110 105 55 19 183 18 269 -3z
m-1180 -237 c13 -10 25 -23 25 -30 0 -6 4 -13 9 -15 12 -4 65 -123 87 -193 34
-113 19 -303 -29 -366 -17 -22 -71 -49 -101 -49 -65 0 -286 79 -286 102 0 4
-5 8 -11 8 -18 0 -117 88 -160 143 -67 84 -52 159 52 257 59 55 62 58 124 97
59 36 110 60 145 67 45 8 119 -3 145 -21z m1758 -14 c155 -77 277 -206 277
-294 0 -30 -26 -85 -40 -85 -6 0 -10 -5 -10 -11 0 -13 -91 -109 -103 -109 -4
0 -13 -5 -20 -10 -48 -41 -62 -50 -74 -50 -7 0 -13 -4 -13 -8 0 -8 -94 -40
-176 -61 -92 -24 -145 -2 -183 75 -22 44 -24 61 -24 169 1 94 6 134 22 185 28
85 53 140 63 140 4 0 8 6 8 13 1 18 35 55 67 73 42 23 129 11 206 -27z m-2258
-466 c30 -9 55 -21 55 -25 0 -4 6 -8 14 -8 26 0 103 -85 145 -160 16 -29 26
-153 17 -202 -7 -37 -53 -94 -92 -115 -33 -16 -116 -17 -163 -1 -95 33 -220
135 -261 215 -14 26 -29 51 -35 55 -5 4 -9 43 -10 86 0 79 0 80 37 116 20 20
46 36 57 36 11 0 23 5 26 10 10 16 149 12 210 -7z m2755 1 c57 -20 67 -28 91
-78 30 -63 23 -119 -28 -210 -71 -128 -234 -236 -355 -236 -104 0 -178 82
-178 197 0 58 22 134 47 164 7 8 13 19 13 23 0 4 21 28 46 54 50 49 103 82
133 82 11 0 23 5 26 10 10 16 155 12 205 -6z m-3029 -416 c30 -10 91 -51 127
-85 7 -7 17 -13 21 -13 15 0 83 -76 97 -109 16 -39 19 -197 4 -206 -5 -3 -10
-15 -10 -25 0 -10 -7 -25 -15 -34 -8 -8 -15 -18 -15 -23 0 -14 -60 -73 -103
-101 -37 -23 -53 -26 -123 -27 -45 0 -87 5 -95 11 -8 6 -26 14 -42 18 -64 15
-168 94 -211 161 -27 42 -28 157 -1 205 66 117 156 199 250 226 53 16 75 16
116 2z m3238 -20 c94 -46 208 -189 227 -287 15 -74 -65 -202 -154 -247 -20
-10 -39 -22 -42 -25 -3 -3 -38 -16 -79 -29 -84 -26 -154 -24 -211 7 -45 23
-119 99 -126 129 -3 13 -10 24 -14 24 -26 0 -29 202 -5 254 9 18 32 46 52 62
19 16 47 39 61 52 14 12 28 22 31 22 3 0 18 11 33 24 53 50 141 55 227 14z
m-3601 -486 c62 -65 131 -106 227 -136 99 -30 123 -45 136 -84 20 -59 6 -116
-45 -190 -25 -37 -46 -73 -46 -80 0 -28 -63 -162 -87 -186 -36 -36 -71 -33
-167 12 -44 22 -101 47 -126 56 -25 10 -60 24 -78 32 -18 8 -37 14 -43 14 -26
0 -92 54 -106 87 -27 65 -8 104 93 195 35 31 41 44 46 104 15 157 122 254 196
176z m3911 12 c40 -23 61 -68 81 -172 l18 -94 64 -58 63 -58 0 -59 c-1 -82
-17 -97 -177 -158 -51 -20 -130 -54 -175 -75 -44 -22 -94 -40 -110 -40 -28 0
-93 45 -93 66 -1 5 -9 27 -20 49 -11 22 -19 46 -20 53 0 22 -60 136 -76 145
-8 4 -14 14 -14 22 0 7 -5 15 -11 17 -20 7 -23 92 -5 130 18 38 46 55 136 83
83 27 161 71 213 120 51 49 80 56 126 29z m-4196 -600 c29 -8 59 -19 67 -23 9
-5 30 -12 48 -15 17 -4 34 -12 37 -17 4 -5 13 -9 22 -9 18 0 106 -41 111 -52
2 -5 9 -8 16 -8 20 0 101 -92 114 -129 24 -67 10 -166 -36 -272 -35 -81 -86
-121 -184 -144 -82 -19 -134 -19 -216 2 -123 30 -189 91 -223 207 -22 73 -22
130 -1 257 20 116 56 177 120 206 37 16 65 15 125 -3z m4499 0 c41 -21 60 -42
80 -84 34 -73 43 -126 43 -250 0 -102 -3 -132 -19 -165 -10 -22 -22 -42 -25
-45 -3 -3 -11 -14 -17 -25 -30 -54 -174 -115 -274 -115 -58 0 -170 27 -208 50
-37 23 -90 103 -115 175 -22 65 -23 180 -1 226 25 51 86 104 161 139 38 17 76
36 85 41 10 5 23 9 30 9 7 0 26 7 41 15 15 8 45 17 65 21 20 4 44 10 52 15 24
13 68 10 102 -7z m-4642 -666 c88 -53 252 -69 378 -36 8 1 17 -4 21 -12 5 -8
13 -26 20 -39 22 -41 35 -256 22 -338 -7 -40 -16 -73 -21 -73 -4 0 -11 -11
-14 -25 -9 -37 -105 -130 -161 -156 -44 -21 -64 -24 -175 -23 -104 0 -133 4
-170 21 -54 24 -120 85 -120 111 0 10 -6 24 -12 30 -19 19 -18 335 1 382 51
127 60 140 125 184 38 26 40 26 60 8 12 -10 32 -25 46 -34z m4756 32 c8 0 14
-4 14 -8 0 -5 11 -14 24 -21 13 -7 37 -41 55 -74 88 -175 79 -477 -17 -561 -7
-6 -18 -16 -25 -22 -7 -6 -24 -15 -37 -19 -14 -4 -31 -12 -38 -18 -8 -6 -68
-13 -133 -15 -118 -4 -120 -4 -185 28 -57 28 -144 101 -144 121 0 4 -6 14 -13
21 -7 7 -20 33 -30 58 -34 91 -16 379 27 427 9 10 31 10 96 3 132 -16 237 5
331 65 29 20 55 31 57 25 2 -5 10 -10 18 -10z m-4359 -748 c18 -15 35 -40 38
-55 4 -15 10 -27 14 -27 18 0 76 -323 68 -385 -8 -78 -59 -124 -157 -146 -157
-35 -249 -35 -316 -1 -41 21 -112 91 -134 133 -7 13 -19 30 -27 37 -7 7 -13
20 -13 28 0 8 -4 14 -8 14 -8 0 -14 13 -52 105 -33 82 -22 208 26 289 12 19
12 19 60 0 40 -15 75 -19 184 -19 128 0 138 1 185 27 64 35 94 35 132 0z
m3994 1 c51 -26 62 -28 184 -28 101 0 140 4 173 18 59 24 64 22 87 -26 15 -31
21 -68 23 -140 4 -96 3 -99 -34 -175 -22 -42 -42 -78 -46 -80 -5 -2 -8 -8 -8
-14 0 -12 -53 -82 -95 -124 -80 -80 -168 -90 -390 -44 -27 6 -51 15 -53 20 -2
6 -9 10 -16 10 -7 0 -25 14 -42 31 -28 29 -29 34 -28 122 1 169 49 359 105
419 43 46 66 48 140 11z"/>
<path d="M727 4374 c-34 -19 -68 -72 -90 -143 -13 -42 -17 -92 -17 -231 0
-158 2 -185 21 -234 12 -31 26 -56 30 -56 5 0 9 -4 9 -10 0 -13 37 -50 50 -50
18 0 10 -32 -18 -69 -62 -81 -83 -179 -62 -286 6 -33 15 -111 20 -172 9 -123
17 -141 92 -216 37 -37 47 -57 30 -57 -5 0 -17 -19 -28 -41 -21 -48 -23 -131
-4 -181 22 -61 45 -108 51 -108 14 0 43 -57 50 -95 16 -85 31 -131 53 -160 24
-31 100 -75 130 -75 21 0 20 -6 -9 -64 -14 -27 -25 -66 -25 -86 0 -35 25 -124
40 -145 4 -5 31 -55 60 -110 29 -55 58 -107 66 -116 8 -8 14 -19 14 -22 0 -9
35 -50 79 -93 35 -35 81 -53 161 -63 l45 -6 5 -75 c4 -62 12 -90 48 -163 45
-92 55 -107 112 -166 71 -73 155 -107 227 -90 25 5 48 8 50 5 3 -2 -7 -28 -20
-58 -45 -95 -58 -150 -45 -191 22 -72 83 -97 237 -97 l108 0 29 -46 c72 -114
244 -196 403 -193 68 1 87 -1 96 -15 7 -9 17 -16 24 -16 6 0 11 -4 11 -8 0 -4
26 -17 58 -27 79 -27 285 -29 322 -2 31 22 48 22 73 -1 28 -25 277 -24 322 1
17 9 36 17 43 17 6 0 12 5 12 10 0 6 7 10 15 10 7 0 18 7 23 16 8 14 25 16 93
15 92 -2 164 16 254 63 68 36 141 100 161 142 l16 34 115 0 c93 0 123 4 161
20 51 22 82 63 82 108 -1 32 -26 109 -57 171 -13 25 -20 47 -18 50 3 2 23 -1
46 -8 34 -10 48 -10 92 5 97 32 167 95 233 209 43 75 56 112 67 203 l11 82 30
0 c39 0 117 24 149 44 35 23 120 133 148 191 13 28 26 52 29 55 12 12 60 109
79 160 12 30 21 74 21 96 0 43 -22 108 -40 119 -23 14 -8 33 30 39 22 3 40 11
40 16 0 6 6 10 13 10 39 0 106 122 107 195 0 17 8 42 18 56 59 89 70 109 85
158 9 29 17 72 17 94 0 41 -34 127 -51 127 -5 0 -9 7 -9 15 0 8 3 15 8 15 4 0
23 15 42 33 55 50 78 107 85 217 4 52 13 127 20 166 20 107 -8 228 -69 298
-15 16 -26 32 -26 36 0 4 14 17 30 30 17 13 45 53 63 89 l32 66 -1 190 c-2
159 -5 198 -21 240 -29 78 -53 112 -93 130 -38 17 -57 17 -225 -1 -36 -4 -80
-1 -113 7 -83 20 -178 -9 -242 -73 -59 -59 -62 -78 -61 -337 1 -170 5 -242 15
-266 17 -39 64 -85 88 -85 22 0 23 -23 2 -41 -41 -34 -48 -69 -50 -239 -1 -91
-5 -195 -9 -233 -7 -63 -6 -69 19 -101 14 -19 26 -37 26 -39 0 -2 -22 -18 -50
-35 -52 -32 -113 -114 -126 -168 -4 -16 -12 -35 -17 -43 -6 -7 -13 -68 -15
-135 -4 -108 1 -153 24 -248 6 -25 4 -28 -19 -28 -31 0 -110 -75 -159 -151 -9
-14 -23 -33 -30 -41 -64 -69 -87 -157 -91 -348 l-2 -65 -53 -7 c-62 -9 -92
-26 -152 -88 -54 -56 -57 -60 -117 -180 -44 -87 -48 -100 -47 -165 l0 -72 -59
0 c-50 -1 -64 -5 -95 -30 -21 -17 -44 -43 -52 -59 -8 -16 -18 -31 -21 -34 -10
-8 -31 -99 -36 -157 -3 -29 -8 -53 -12 -53 -4 0 -29 20 -55 45 -69 64 -143 72
-204 24 -46 -35 -56 -73 -61 -229 l-6 -145 -24 40 c-14 22 -43 75 -65 119 -53
104 -96 146 -150 146 -86 0 -130 -68 -171 -264 -24 -118 -30 -111 -77 84 -20
85 -27 99 -65 137 -35 36 -49 43 -80 43 -72 0 -105 -37 -193 -217 -23 -46 -45
-83 -50 -83 -6 0 -10 58 -10 140 0 110 -4 148 -16 173 -24 48 -61 75 -110 83
-52 7 -102 -15 -161 -72 l-38 -37 -6 64 c-9 92 -25 145 -61 199 -41 63 -75 82
-147 81 l-58 0 5 68 c4 63 2 74 -33 147 -91 191 -174 275 -287 292 l-53 7 3
58 c8 121 -28 281 -75 332 -10 11 -31 40 -48 65 -44 65 -131 150 -154 150 -26
0 -34 15 -21 40 19 35 31 223 20 297 -11 70 -12 75 -47 153 -22 49 -98 140
-116 140 -7 0 -20 7 -30 14 -15 12 -16 16 -5 27 8 8 22 32 32 53 17 36 18 45
5 100 -13 60 -17 167 -10 276 4 69 -11 127 -44 162 -30 32 -32 48 -6 48 10 0
35 15 55 33 48 44 53 80 51 342 l-1 211 -36 49 c-75 101 -74 101 -142 119 -44
12 -78 16 -103 11 -44 -8 -144 -9 -258 -1 -60 4 -87 1 -108 -10z m233 -40 c49
-4 101 -2 122 4 27 7 53 7 91 -2 65 -15 108 -44 138 -93 22 -34 22 -45 22
-242 -1 -113 -2 -222 -2 -242 -1 -25 -10 -46 -31 -69 -28 -32 -36 -35 -100
-38 -45 -3 -97 2 -144 13 -72 17 -159 17 -243 -1 -28 -5 -37 -1 -76 38 -67 68
-79 117 -74 313 4 167 13 220 47 279 26 42 60 57 120 51 25 -3 83 -8 130 -11z
m4429 0 c47 3 109 8 136 11 82 9 122 -27 157 -145 8 -29 13 -99 13 -195 0
-123 -4 -160 -20 -207 -10 -32 -23 -58 -27 -58 -4 0 -8 -4 -8 -10 0 -13 -37
-50 -50 -50 -5 0 -10 -5 -10 -11 0 -7 -13 -9 -37 -4 -77 14 -184 16 -216 5
-18 -6 -72 -14 -121 -17 -104 -7 -143 7 -170 63 -24 51 -24 469 0 517 20 38
71 86 99 92 75 18 104 20 134 12 19 -5 73 -6 120 -3z m-4310 -713 c70 -13 119
-37 154 -73 44 -45 49 -70 41 -208 -5 -100 -3 -138 10 -187 15 -57 15 -65 0
-102 -19 -48 -44 -60 -164 -76 -80 -12 -113 -20 -185 -51 -87 -36 -94 -35
-157 27 -54 53 -68 95 -68 204 0 68 -4 105 -12 114 -8 7 -13 42 -13 95 0 71 4
90 29 139 28 57 90 117 119 117 9 0 19 5 23 11 7 13 136 7 223 -10z m4415 10
c3 -4 18 -11 33 -14 25 -5 57 -31 89 -69 49 -62 66 -175 40 -276 -9 -35 -16
-99 -16 -142 0 -96 -7 -117 -62 -172 -76 -77 -60 -74 -173 -29 -66 27 -98 35
-170 43 -141 17 -182 52 -168 143 4 28 8 113 9 190 1 77 2 154 3 171 1 23 13
43 42 73 23 22 47 41 54 41 7 0 26 7 41 15 16 8 45 15 64 15 19 0 42 5 50 10
19 12 157 13 164 1z m-4195 -725 c56 -36 106 -107 131 -188 25 -84 28 -258 4
-337 -14 -47 -19 -54 -60 -72 -25 -10 -52 -19 -61 -19 -8 0 -31 -7 -51 -16
-21 -9 -52 -22 -70 -30 -48 -21 -145 -18 -190 5 -49 26 -71 53 -82 104 -25
115 -35 145 -59 177 -90 116 -92 266 -6 310 17 8 31 18 33 23 2 4 9 7 15 7 7
0 24 6 39 14 15 8 42 17 60 21 18 4 38 11 43 15 18 14 58 19 136 15 61 -2 84
-8 118 -29z m4004 16 c7 -5 28 -13 47 -17 19 -4 40 -11 45 -15 6 -4 21 -11 34
-15 13 -4 43 -19 67 -33 59 -36 81 -91 64 -165 -14 -60 -46 -127 -76 -160 -12
-13 -26 -48 -32 -78 -26 -136 -38 -156 -106 -191 -41 -21 -148 -27 -169 -9
-13 10 -108 44 -173 60 -50 13 -66 31 -88 95 -21 66 -22 234 0 302 46 142 106
211 209 238 31 8 165 -1 178 -12z m-303 -663 c25 -6 63 -18 85 -26 77 -29 120
-48 130 -56 44 -34 56 -48 71 -86 15 -38 15 -49 4 -99 -8 -31 -24 -75 -36 -97
-13 -22 -42 -77 -65 -122 -24 -46 -47 -83 -51 -83 -4 0 -8 -4 -8 -10 0 -16
-55 -77 -106 -120 -11 -9 -46 -16 -89 -18 l-71 -4 -35 46 c-25 33 -54 55 -109
83 -41 20 -78 42 -82 48 -4 5 -8 54 -8 108 0 126 20 182 104 295 73 99 110
137 146 151 25 9 38 8 120 -10z m-3472 -25 c13 -16 37 -44 53 -62 16 -19 37
-47 46 -63 10 -16 21 -29 25 -29 4 0 8 -7 8 -15 0 -8 4 -15 10 -15 5 0 13 -12
16 -27 4 -16 12 -34 18 -42 7 -9 11 -64 11 -144 0 -105 -3 -131 -15 -138 -8
-4 -37 -18 -64 -30 -58 -26 -114 -74 -127 -106 -8 -21 -15 -23 -77 -23 -61 0
-74 4 -111 30 -44 32 -131 142 -131 166 0 8 -4 14 -9 14 -5 0 -14 12 -20 28
-5 15 -28 60 -51 100 -53 94 -63 169 -31 234 17 36 32 49 83 75 55 28 137 59
203 76 11 3 47 5 79 3 51 -2 62 -6 84 -32z m340 -594 c44 -24 122 -98 122
-117 0 -7 4 -13 8 -13 5 0 19 -25 33 -55 13 -30 27 -55 31 -55 3 0 9 -13 13
-30 4 -16 11 -32 16 -35 12 -8 12 -102 0 -109 -5 -3 -12 -18 -16 -33 -7 -31
-66 -91 -127 -130 -35 -22 -54 -27 -108 -27 -71 0 -118 22 -176 83 -45 48 -52
56 -82 113 -46 86 -62 140 -62 206 0 54 5 70 33 113 62 96 218 140 315 89z
m2826 -4 c58 -27 91 -54 121 -101 23 -35 28 -166 7 -187 -6 -7 -12 -19 -12
-27 0 -9 -11 -36 -25 -61 -13 -25 -30 -56 -37 -70 -18 -35 -85 -101 -132 -130
-57 -34 -148 -33 -211 4 -109 64 -173 176 -146 254 14 40 53 124 61 132 3 3
14 22 24 43 23 45 99 125 141 149 46 27 144 24 209 -6z m-464 -499 c51 -24 91
-61 134 -126 48 -72 86 -151 86 -176 0 -9 4 -25 10 -35 6 -12 6 -28 0 -47 -16
-43 -82 -63 -214 -63 -114 0 -134 7 -211 74 -30 26 -30 27 -30 129 0 117 17
170 71 224 43 43 91 49 154 20z m-1959 -14 c45 -40 66 -89 78 -179 14 -105 4
-149 -46 -191 -21 -18 -46 -35 -55 -39 -10 -3 -18 -10 -18 -15 0 -5 -52 -9
-119 -9 -96 0 -128 4 -165 20 -49 20 -50 24 -46 100 2 45 76 203 106 226 8 6
14 14 14 18 0 8 52 53 89 78 16 10 47 17 79 17 43 1 57 -4 83 -26z m376 -229
c37 -37 43 -70 43 -247 0 -121 -4 -177 -12 -185 -17 -17 -114 -15 -168 4 -115
41 -222 111 -251 165 -11 22 -2 49 17 49 8 0 14 4 14 9 0 5 9 12 19 16 11 3
60 46 110 95 50 50 94 90 97 90 3 0 13 7 22 16 20 21 83 13 109 -12z m1174 8
c14 -9 55 -46 92 -83 36 -36 93 -85 126 -109 39 -29 61 -52 61 -64 0 -11 -22
-41 -50 -67 -51 -48 -105 -78 -199 -110 -61 -21 -166 -25 -177 -7 -11 17 -15
349 -5 362 4 6 11 22 14 36 7 29 51 59 87 60 14 0 37 -8 51 -18z m-793 -107
c19 -16 35 -44 46 -82 9 -32 21 -72 26 -89 6 -17 10 -37 10 -46 0 -8 9 -44 20
-78 28 -87 26 -96 -20 -120 -76 -39 -262 -18 -338 38 -46 34 -48 45 -14 89 17
21 56 88 87 148 85 166 120 193 183 140z m394 2 c14 -13 43 -59 65 -103 67
-133 77 -149 113 -193 31 -37 26 -53 -25 -87 -77 -52 -249 -71 -327 -37 -46
21 -53 38 -34 94 8 24 26 89 39 144 32 130 42 154 75 182 34 29 62 29 94 0z"/>
</g>
</svg>
