<svg xmlns="http://www.w3.org/2000/svg" width="52" height="52" fill="none" viewBox="0 0 52 52">
    <path fill="#D4D4D4" fill-rule="evenodd" d="M52 26.046C52 11.647 40.353 0 26.046 0 11.647 0 0 11.647 0 26.046 0 40.353 11.647 52 26.046 52 40.353 52 52 40.353 52 26.046zM35.859 22.56c0-5.411-4.402-9.813-9.813-9.813-5.411 0-9.905 4.402-9.905 9.813 0 3.668 2.018 6.878 4.953 8.529-5.32 1.743-9.447 6.236-10.639 11.739-4.494-4.127-7.337-10.18-7.337-16.783 0-12.656 10.272-22.928 22.928-22.928S48.974 13.39 48.974 26.046c0 6.603-2.843 12.656-7.429 16.783-1.192-5.503-5.32-9.996-10.639-11.74 2.935-1.65 4.953-4.86 4.953-8.528zm2.935 22.469v-.092c-.642-6.511-6.237-11.464-12.748-11.464-6.603 0-12.106 4.953-12.748 11.464v.092c3.577 2.476 7.979 3.944 12.748 3.944 4.677 0 9.08-1.468 12.748-3.944zM19.259 22.56c0-3.668 3.027-6.694 6.787-6.694 3.668 0 6.695 3.026 6.695 6.695 0 3.76-3.027 6.786-6.695 6.786-3.76 0-6.787-3.026-6.787-6.786z" clip-rule="evenodd"/>
</svg>
