<svg xmlns="http://www.w3.org/2000/svg" width="26" height="26" fill="none" viewBox="0 0 26 26">
    <path fill="#00A0F0" fill-rule="evenodd" d="M22.892 7.686l-9.479 5.78c-.255.155-.572.155-.827 0l-9.48-5.78c-.067-.042-.107-.118-.1-.2C3.072 6.657 3.75 6 4.571 6h16.855c.822 0 1.499.656 1.567 1.487.007.08-.034.157-.102.199zM13 15.351c.128 0 .257-.036.372-.106l9.315-5.68c.138-.083.313.02.313.185v8.627c0 .896-.704 1.623-1.573 1.623H4.572C3.704 20 3 19.273 3 18.377V9.75c0-.166.174-.268.313-.184l9.315 5.68c.114.069.243.105.372.105z" clip-rule="evenodd"/>
</svg>
