<svg xmlns="http://www.w3.org/2000/svg" width="18" height="18" fill="none" viewBox="0 0 18 18">
    <path fill="#7A7A7A" fill-rule="evenodd" d="M12.007.377C11.89.146 11.654 0 11.395 0H7.058c-.259 0-.496.146-.611.377l-1.01 2.034H2v1.363h.97v13.544c0 .377.305.682.682.682h11.152c.376 0 .681-.305.681-.682V3.774h.97V2.411h-3.437L12.007.377zm-4.527.986h3.495l.525 1.048H6.956l.524-1.048zM5.645 15.135h1.363V5.75H5.645v9.384zm4.264 0H8.546V5.75H9.91v9.384zm1.539 0h1.363V5.75h-1.363v9.384z" clip-rule="evenodd"/>
</svg>
