<svg xmlns="http://www.w3.org/2000/svg" width="54" height="54" fill="none" viewBox="0 0 54 54">
    <circle cx="27" cy="27" r="27" fill="#fff"/>
    <path fill="#393939" d="M33.374 19.583l.594-.37-.001-.003-.593.373zm-1.065-1.691l-.593.372.593-.372zm-9.769 0l.593.373v-.001l-.593-.372zm-1.068 1.694l-.592-.373-.003.005.595.368zm17.578 4.552v8.531h1.4v-8.531h-1.4zm-3.69-3.617c2.046 0 3.69 1.634 3.69 3.617h1.4c0-2.778-2.293-5.017-5.09-5.017v1.4zm-1.555 0h1.556v-1.4h-1.556v1.4zm-1.025-.568c.224.36.611.568 1.025.568v-1.4c.061 0 .127.034.163.092l-1.188.74zm-1.064-1.688l1.066 1.691 1.185-.746-1.066-1.692-1.185.747zm-.478-.26c.2 0 .38.102.478.259l1.185-.745c-.359-.572-.99-.914-1.663-.914v1.4zm-7.627 0h7.627v-1.4h-7.627v1.4zm-.478.259c.099-.157.278-.259.478-.259v-1.4c-.673 0-1.304.342-1.663.914l1.185.745zm-1.068 1.695l1.068-1.694-1.185-.747-1.068 1.695 1.185.746zm-1.054.562c.418 0 .82-.186 1.056-.566l-1.19-.737c.02-.034.052-.063.087-.08.034-.018.054-.017.047-.017v1.4zm-1.522 0h1.522v-1.4h-1.522v1.4zm-3.69 3.617c0-1.983 1.645-3.617 3.69-3.617v-1.4c-2.796 0-5.09 2.239-5.09 5.017h1.4zm0 8.531v-8.531h-1.4v8.531h1.4zm3.69 3.617c-2.045 0-3.69-1.635-3.69-3.617h-1.4c0 2.778 2.294 5.017 5.09 5.017v-1.4zm15.872 0H19.489v1.4H35.36v-1.4zm3.69-3.617c0 1.983-1.645 3.617-3.69 3.617v1.4c2.796 0 5.09-2.24 5.09-5.017h-1.4zm-6.777-4.847c0 2.611-2.165 4.757-4.85 4.757v1.4c3.436 0 6.25-2.75 6.25-6.157h-1.4zm-4.85-4.756c2.685 0 4.85 2.145 4.85 4.756h1.4c0-3.406-2.814-6.156-6.25-6.156v1.4zm-4.85 4.756c0-2.61 2.166-4.756 4.85-4.756v-1.4c-3.435 0-6.25 2.75-6.25 6.156h1.4zm4.85 4.757c-2.684 0-4.85-2.146-4.85-4.757h-1.4c0 3.407 2.815 6.157 6.25 6.157v-1.4z"/>
    <path stroke="#222" stroke-linecap="round" stroke-linejoin="round" stroke-width="1.5" d="M38.616 15L15 39.46"/>
</svg>
