<svg xmlns="http://www.w3.org/2000/svg" width="95" height="95" fill="none" viewBox="0 0 95 95">
    <rect width="71" height="71" x="12" y="12" fill="#FF462C" rx="35.5"/>
    <path fill="#fff" d="M47.594 54H45.25l-4.563-7.484V54h-2.343V42.625h2.343l4.57 7.5v-7.5h2.337V54zm1.547-4.305c0-.838.161-1.586.484-2.242.323-.656.786-1.164 1.39-1.523.61-.36 1.316-.54 2.118-.54 1.14 0 2.07.35 2.789 1.047.724.698 1.128 1.646 1.21 2.844l.016.578c0 1.297-.362 2.339-1.086 3.125-.723.782-1.695 1.172-2.914 1.172-1.218 0-2.192-.39-2.921-1.172-.724-.78-1.086-1.843-1.086-3.187v-.102zm2.257.164c0 .802.151 1.417.454 1.844.302.422.734.633 1.296.633.547 0 .974-.208 1.282-.625.307-.422.46-1.094.46-2.016 0-.786-.153-1.395-.46-1.828-.308-.432-.74-.648-1.297-.648-.552 0-.98.216-1.281.648-.302.427-.454 1.091-.454 1.992z"/>
</svg>
