<svg xmlns="http://www.w3.org/2000/svg" width="54" height="54" fill="none" viewBox="0 0 54 54">
    <circle cx="27" cy="27" r="27" fill="#fff"/>
    <path fill="#393939" d="M23.508 28.454c-.136-.38-.21-.79-.21-1.216V20.04c0-1.987 1.611-3.599 3.599-3.599 1.988 0 3.599 1.612 3.599 3.6v1.425l1.44-1.44C31.929 17.25 29.676 15 26.896 15c-2.783 0-5.039 2.257-5.039 5.04v7.198c0 .832.202 1.617.56 2.308l1.091-1.092z"/>
    <path fill="#393939" fill-rule="evenodd" d="M35.766 16.767c.281-.277.734-.276 1.014.004s.281.732.002 1.014l-.004.004-4.844 4.843v4.605c0 2.784-2.255 5.04-5.039 5.04-1.28 0-2.45-.479-3.34-1.267l-1.06 1.061c1.187 1.022 2.745 1.644 4.4 1.644 3.083 0 5.824-2.154 6.48-5.039 0-.398.322-.72.72-.72.397 0 .72.323.72.72-.636 3.455-3.646 6.127-7.2 6.447v1.473h.72c.398 0 .72.322.72.72 0 .398-.322.72-.72.72h-2.88c-.398 0-.72-.323-.72-.72 0-.398.323-.72.72-.72h.72v-1.473c-1.775-.16-3.413-.906-4.689-2.044l-3.253 3.254-.004.005c-.28.28-.737.28-1.018 0-.281-.282-.281-.738 0-1.019l.004-.003 5.407-5.407 1.057-1.057 12.082-12.08.005-.005zm-8.868 14.07c1.987 0 3.599-1.61 3.599-3.599v-3.165l-5.919 5.918c.627.529 1.436.846 2.32.846z" clip-rule="evenodd"/>
    <path fill="#393939" d="M21.275 30.687c-.399-.609-.694-1.286-.858-2.009 0-.397-.323-.72-.72-.72-.398 0-.72.322-.72.72.203 1.107.65 2.132 1.28 3.026l1.018-1.017z"/>
</svg>
