<svg xmlns="http://www.w3.org/2000/svg" width="41" height="41" fill="none" viewBox="0 0 41 41">
    <rect width="34" height="34" x="4" y="4" fill="#FF462C" rx="17"/>
    <path fill="#fff" d="M14.565 14.35c.41-.42 1.075-.42 1.485 0L21 19.428l4.95-5.076c.41-.42 1.075-.42 1.485 0 .41.42.41 1.102 0 1.523l-4.95 5.077 4.95 5.076c.41.42.41 1.103 0 1.523-.41.42-1.075.42-1.485 0L21 22.474l-4.95 5.076c-.41.42-1.075.42-1.485 0-.41-.42-.41-1.102 0-1.523l4.95-5.076-4.95-5.077c-.41-.42-.41-1.103 0-1.523z"/>
</svg>
