<svg xmlns="http://www.w3.org/2000/svg" width="19" height="19" fill="none" viewBox="0 0 19 19">
    <path fill="#000" fill-rule="evenodd" d="M4.547 17H14.4c.302 0 .547-.256.547-.571V7.857c0-.315-.245-.571-.547-.571H4.547c-.302 0-.547.256-.547.571v8.572c0 .315.245.571.547.571zm9.306-1.143H5.095V8.43h8.758v7.428z" clip-rule="evenodd"/>
    <path fill="#000" fill-rule="evenodd" d="M5.642 7.857c0 .316.245.572.547.572h6.569c.145 0 .284-.06.387-.168.103-.107.16-.252.16-.404V5c0-2.21-1.715-4-3.831-4-2.116 0-3.832 1.79-3.832 4v2.857zM12.21 5v2.286H6.737V5c0-1.578 1.225-2.857 2.737-2.857 1.511 0 2.736 1.279 2.736 2.857z" clip-rule="evenodd"/>
    <path fill="#000" d="M9.474 14.714c-.303 0-.548-.255-.548-.571v-1.714c0-.316.245-.572.548-.572.302 0 .547.256.547.572v1.714c0 .316-.245.571-.547.571z"/>
    <path fill="#000" fill-rule="evenodd" d="M7.832 11.286c0 .947.735 1.714 1.642 1.714.907 0 1.642-.768 1.642-1.714 0-.947-.735-1.715-1.642-1.715-.907 0-1.642.768-1.642 1.715zm1.094 0c0-.316.245-.572.548-.572.302 0 .547.256.547.572 0 .315-.245.571-.547.571-.303 0-.548-.256-.548-.571z" clip-rule="evenodd"/>
</svg>
