<svg xmlns="http://www.w3.org/2000/svg" width="108" height="100" fill="none" viewBox="0 0 108 100">
    <path fill="#6D6D6D" d="M54 45v46.294H34.714L27 99l-7.714-7.706H0V45h54z"/>
    <path fill="#fff" d="M16.076 72.55h21.691v6.356h-21.69V72.55zM16.076 57.963h21.691v6.356h-21.69v-6.356z"/>
    <path fill="#E62B2A" d="M102.896 57.666L106.951 76l-18.606-3.925C82.775 75.21 76.346 77 69.5 77 48.236 77 31 59.763 31 38.5S48.236 0 69.499 0 108 17.237 108 38.5c0 6.977-1.857 13.523-5.104 19.166z"/>
    <path fill="#fff" d="M86 28v21h-4.268l-9.904-7.49V49H51V28h20.828v7.491L81.732 28H86z"/>
    <path fill="#fff" d="M86 28v21h-4.216L72 41.51V49 28v7.491L81.784 28H86z"/>
</svg>
