<svg xmlns="http://www.w3.org/2000/svg" width="30" height="30" fill="none" viewBox="0 0 30 30">
    <path fill="#000" d="M14.23 27.458c-.901-.272-1.485-1.178-1.499-2.15l-.01-.743s0-.028.026-.029l4.291-.062.012.8c-.006 1.486-1.347 2.649-2.82 2.184zM23.983 23.86l-18.25.264c-.787.011-1.422-.637-1.434-1.465l-.003-.257c-.006-.4.124-.774.392-1.063l1.873-1.97-.092-6.314c-.055-3.828 2.18-7.09 5.584-8.282.027 0 .027-.029.027-.058l-.004-.228c-.012-.857.356-1.691 1.028-2.158 1.829-1.284 3.888.2 3.915 2.086l.003.229c3.466 1.093 5.821 4.287 5.877 8.144l.092 6.342 1.93 1.944c.275.282.416.651.422 1.051l.004.257c.039.8-.576 1.466-1.364 1.477z"/>
</svg>
