<svg xmlns="http://www.w3.org/2000/svg" width="86" height="86" fill="none" viewBox="0 0 86 86">
    <path fill="#fff" d="M30.5 69.65l39.75-26-39.75-27v53z"/>
    <path stroke="#fff" stroke-linecap="round" stroke-linejoin="round" stroke-width="3" d="M77.1 66.1c-1.433 2.067-3.1 4.05-5 5.95-8.033 8.033-17.717 12.05-29.05 12.05-11.333 0-21-4.017-29-12.05C6.017 64.017 2 54.35 2 43.05 2 31.717 6.017 22.033 14.05 14c8-8 17.667-12 29-12C54.383 2 64.067 6 72.1 14c8 8.033 12 17.717 12 29.05 0 8.467-2.233 16-6.7 22.6"/>
</svg>
