<svg xmlns="http://www.w3.org/2000/svg" width="28" height="28" fill="none" viewBox="0 0 28 28">
    <path fill="#00A0F0" fill-rule="evenodd" d="M4.05 23.617c-5.4-5.4-5.4-14.167 0-19.567 5.367-5.4 14.167-5.4 19.567 0s5.4 14.167 0 19.567-14.167 5.4-19.567 0zm1.6-1.634c4.5 4.5 11.833 4.5 16.333 0 4.5-4.5 4.5-11.833 0-16.333-4.5-4.5-11.833-4.5-16.333 0-4.5 4.5-4.5 11.833 0 16.333z" clip-rule="evenodd"/>
    <path fill="#00A0F0" d="M13.817 7.25c-.633 0-1.133.5-1.133 1.133v4.334H8.35c-.633 0-1.133.5-1.133 1.133s.5 1.133 1.133 1.133h4.334v4.334c0 .633.5 1.133 1.133 1.133.3 0 .6-.133.8-.333.2-.2.333-.5.333-.8v-4.334h4.334c.3 0 .6-.133.8-.333.2-.2.333-.5.333-.8 0-.633-.5-1.133-1.134-1.133H14.95V8.383c0-.633-.5-1.133-1.133-1.133z"/>
</svg>
