<svg xmlns="http://www.w3.org/2000/svg" width="18" height="17" fill="none" viewBox="0 0 18 17">
    <path fill="#000" fill-rule="evenodd" d="M12.701 11.136l5.147 5.026c.203.197.203.493 0 .69-.101.099-.228.148-.355.148-.127 0-.254-.05-.355-.148l-5.121-4.977C10.724 13.058 9 13.797 7.099 13.797 3.194 13.797 0 10.693 0 6.9 0 3.104 3.194 0 7.099 0c3.904 0 7.098 3.104 7.098 6.899 0 1.601-.558 3.055-1.496 4.237zM1.014 6.9c0 3.252 2.738 5.913 6.085 5.913 3.346 0 6.084-2.661 6.084-5.913 0-3.253-2.738-5.913-6.084-5.913-3.347 0-6.085 2.66-6.085 5.913z" clip-rule="evenodd"/>
</svg>
