<svg xmlns="http://www.w3.org/2000/svg" width="90" height="69" fill="none" viewBox="0 0 90 69">
    <path fill="#414141" fill-rule="evenodd" d="M82.71 0H7.29C3.264 0 0 3.264 0 7.29v54.24c0 1.933.768 3.788 2.135 5.155 1.367 1.367 3.222 2.135 5.155 2.135h75.42c1.933 0 3.788-.768 5.155-2.135C89.232 65.318 90 63.463 90 61.53V7.29c0-1.933-.768-3.788-2.135-5.155C86.498.768 84.643 0 82.71 0zM7.29 4.51h75.42c1.533.005 2.775 1.247 2.78 2.78v7.43h-81V7.29c.003-.74.3-1.449.824-1.97.525-.521 1.236-.813 1.976-.81zm0 59.8h75.42c.74.003 1.45-.289 1.976-.81.525-.521.821-1.23.824-1.97V28.41h-81v33.12c.005 1.533 1.247 2.775 2.78 2.78zM46 39.54H12.88c-1.105 0-2-.895-2-2s.895-2 2-2H46c1.105 0 2 .895 2 2s-.895 2-2 2zm-33.12 9h16.56c1.105 0 2-.895 2-2s-.895-2-2-2H12.88c-1.105 0-2 .895-2 2s.895 2 2 2z" clip-rule="evenodd"/>
</svg>
