<svg xmlns="http://www.w3.org/2000/svg" width="24" height="24" fill="none" viewBox="0 0 24 24">
    <path fill="#00A0F0" d="M6 11.143h-.013c-.473 0-.857.383-.857.857s.383.857.857.857H18.01c.474 0 .858-.383.858-.857s-.384-.857-.858-.857H6z"/>
    <path fill="#00A0F0" d="M12.856 6v-.012c0-.473-.383-.857-.857-.857s-.857.383-.857.857v12.023c0 .474.383.858.857.858s.857-.384.857-.858V6z"/>
    <path fill="#00A0F0" fill-rule="evenodd" d="M0 12C0 5.382 5.382 0 12 0c6.616 0 11.998 5.383 11.998 12 0 6.616-5.382 11.998-11.999 11.998C5.383 23.998 0 18.617 0 12zm22.285 0c0-5.69-4.595-10.286-10.286-10.286C6.31 1.714 1.714 6.31 1.714 12s4.594 10.285 10.285 10.285S22.285 17.69 22.285 12z" clip-rule="evenodd"/>
</svg>
