<svg xmlns="http://www.w3.org/2000/svg" width="127" height="127" fill="none" viewBox="0 0 127 127">
    <path fill="#7E7877" d="M71.179 46H17.82C9.636 46 3 52.673 3 60.906v38.258c0 8.232 6.636 14.905 14.821 14.905h16.052l-.223.02L44.5 125l.008-10.931h26.67c8.186 0 14.822-6.673 14.822-14.906V60.907C86 52.673 79.364 46 71.179 46z"/>
    <path fill="#000" d="M44 127c-.643 0-1.275-.253-1.748-.728L32.1 116.065H17.303C7.763 116.065 0 108.261 0 98.669V60.397C0 50.803 7.762 43 17.303 43H42.27c1.365 0 2.472 1.113 2.472 2.485 0 1.373-1.107 2.485-2.472 2.485H17.303c-6.815 0-12.36 5.575-12.36 12.427v38.272c0 6.851 5.545 12.426 12.36 12.426h16.063c1.01 0 1.885.611 2.267 1.493l5.9 5.931.003-4.941c.001-1.372 1.107-2.483 2.472-2.483h26.689c6.815 0 12.36-5.575 12.36-12.426V81.52c0-1.373 1.106-2.486 2.471-2.486S88 80.148 88 81.522v17.148c0 9.592-7.762 17.396-17.303 17.396h-24.22l-.005 8.452c0 1.004-.603 1.91-1.527 2.294-.305.127-.626.189-.944.189z"/>
    <path fill="#E62B2A" d="M90.621 2h-6.242C65.945 2 51 17.038 51 35.587c0 18.55 14.944 33.588 33.38 33.588h6.241c3.417 0 6.713-.518 9.817-1.478L110.682 78V62.432C118.77 56.302 124 46.56 124 35.587 124 17.037 109.056 2 90.621 2z"/>
    <path fill="#000" fill-rule="evenodd" d="M109.458 80.273c.472.475 1.103.727 1.745.727.318 0 .639-.062.944-.19.923-.383 1.524-1.289 1.524-2.293V64.153c3.907-3.182 7.153-7.203 9.43-11.694 2.588-5.1 3.899-10.61 3.899-16.374C127 16.188 110.906 0 91.124 0h-6.248C65.094 0 49 16.188 49 36.085c0 19.898 16.094 36.086 35.876 36.086h6.248c3.087 0 6.143-.395 9.105-1.175l9.229 9.277zm-6.764-13.82c-.47-.472-1.101-.726-1.745-.726-.242 0-.487.036-.725.11-2.938.908-6 1.368-9.1 1.368h-6.248c-17.06 0-30.94-13.96-30.94-31.12s13.88-31.12 30.94-31.12h6.248c17.06 0 30.939 13.96 30.939 31.12 0 9.864-4.5 18.93-12.346 24.874-.618.47-.983 1.204-.983 1.984v9.583l-6.04-6.072z" clip-rule="evenodd"/>
    <path fill="#fff" d="M88.5 46c-1.37 0-2.48-1.112-2.48-2.485v-5.97c0-2.225 1.52-4.12 3.697-4.608 2.687-.603 4.5-3.048 4.309-5.816-.189-2.74-2.393-4.948-5.128-5.137-1.56-.108-3.043.417-4.177 1.478-1.135 1.062-1.76 2.503-1.76 4.058 0 1.373-1.111 2.485-2.48 2.485-1.37 0-2.481-1.112-2.481-2.485 0-2.905 1.216-5.708 3.336-7.691 2.15-2.011 4.96-3.006 7.903-2.803 5.192.358 9.377 4.552 9.735 9.753.356 5.174-2.997 9.756-7.994 10.965v5.771c0 1.373-1.11 2.485-2.48 2.485zM88.5 56c-.657 0-1.302-.265-1.767-.73-.465-.465-.733-1.11-.733-1.77 0-.657.267-1.303.733-1.767.465-.465 1.11-.733 1.767-.733.657 0 1.302.267 1.767.733.465.465.733 1.11.733 1.767 0 .66-.267 1.303-.733 1.77-.465.465-1.11.73-1.767.73zM68.532 82H16.468C15.105 82 14 80.88 14 79.5s1.105-2.5 2.468-2.5h52.064C69.895 77 71 78.12 71 79.5S69.895 82 68.532 82zM68.5 96c-.657 0-1.302-.267-1.767-.733-.466-.465-.733-1.11-.733-1.767 0-.657.267-1.302.733-1.767.465-.466 1.11-.733 1.767-.733.657 0 1.302.267 1.767.733.465.465.733 1.11.733 1.767 0 .66-.267 1.302-.733 1.767-.465.466-1.11.733-1.767.733zM58.496 96H15.504C14.121 96 13 94.88 13 93.5s1.121-2.5 2.504-2.5h42.992C59.879 91 61 92.12 61 93.5S59.879 96 58.496 96zM51.53 68H15.47C14.106 68 13 66.88 13 65.5s1.106-2.5 2.47-2.5h36.06c1.364 0 2.47 1.12 2.47 2.5S52.894 68 51.53 68z"/>
</svg>
