<svg xmlns="http://www.w3.org/2000/svg" width="22" height="22" fill="none" viewBox="0 0 22 22">
    <path fill="#26292C" fill-rule="evenodd" d="M10.792 20h.404c.348-.076.673-.234.947-.462.194-.166.345-.375.442-.61.177-.47.478-.882.872-1.192.25-.183.555-.275.865-.26.386-.003.769.077 1.12.236.86.39 2.22-.018 2.401-1.364.045-.318 0-.642-.13-.936-.184-.424-.258-.89-.212-1.35.04-.327.198-.629.443-.85.254-.262.561-.467.901-.603.56-.212.977-.693 1.106-1.278l.03-.095.019-.055v-.403c-.084-.247-.184-.488-.3-.722-.17-.303-.443-.537-.769-.661-.489-.18-.914-.5-1.223-.921-.16-.242-.238-.528-.225-.817 0-.386.085-.768.25-1.118.346-.753.067-1.957-.998-2.318-.415-.152-.872-.138-1.278.038-.427.19-.897.265-1.362.218-.375-.049-.715-.243-.948-.54-.233-.252-.417-.545-.54-.864-.27-.653-.908-1.077-1.614-1.073-.706.004-1.339.435-1.601 1.09-.181.471-.494.88-.901 1.176-.24.163-.527.244-.816.23-.387.007-.771-.073-1.123-.235-.759-.35-1.966-.078-2.326 1.004-.148.41-.135.861.038 1.262.202.452.274.951.207 1.442-.069.348-.26.659-.54.876-.251.234-.544.417-.864.54-.508.208-.886.646-1.017 1.178-.131.533 0 1.097.354 1.516.183.23.423.407.696.516.468.179.875.488 1.174.89.17.248.251.544.235.844-.004.39-.09.776-.249 1.132-.273.654-.119 1.408.388 1.903.507.495 1.264.63 1.911.341.425-.185.89-.257 1.35-.21.416.054.788.287 1.018.637.182.24.336.5.46.776.22.51.662.89 1.2 1.03l.205.062zm1.467-12.07c1.236.512 2.041 1.718 2.041 3.057-.008 1.822-1.482 3.299-3.304 3.307-1.338.001-2.544-.804-3.057-2.04-.512-1.236-.23-2.66.716-3.606.946-.946 2.368-1.23 3.604-.718z" clip-rule="evenodd"/>
</svg>
