<svg xmlns="http://www.w3.org/2000/svg" width="124" height="124" fill="none" viewBox="0 0 124 124">
    <path fill="#7E7877" stroke="#181C1B" stroke-width="4" d="M82.334 105.068c.816.816 1.272 1.92 1.272 3.072 0 1.176-.456 2.28-1.272 3.096l-7.488 7.488c-2.184 2.184-5.28 3.24-9 3.24-10.632 0-26.4-8.52-40.848-22.968C5.486 79.484-3.178 57.596 5.27 49.148l7.488-7.488c1.704-1.704 4.464-1.704 6.168 0l16.008 16.008c1.704 1.704 1.704 4.488 0 6.192l-5.328 5.328c-1.392 1.392.36 8.544 8.52 16.68 8.136 8.16 15.288 9.912 16.68 8.52l5.328-5.328c1.704-1.704 4.488-1.704 6.192 0l16.008 16.008z"/>
    <path fill="#E62B2A" stroke="#181C1B" stroke-width="4" d="M121.959 8.324v39.072c0 3.48-2.832 6.312-6.288 6.312h-32.4L66.927 70.052c-.456.456-1.056.696-1.68.696-.312 0-.624-.072-.936-.192-.888-.36-1.464-1.248-1.464-2.208v-14.64h-6.576c-3.48 0-6.312-2.832-6.312-6.312V8.324c0-3.456 2.832-6.288 6.312-6.288h59.4c3.456 0 6.288 2.832 6.288 6.288z"/>
    <path stroke="#fff" stroke-linecap="round" stroke-width="4" d="M64.5 14.5h44M64.5 26h44M64.5 38h44"/>
</svg>
