<svg xmlns="http://www.w3.org/2000/svg" width="49" height="37" fill="none" viewBox="0 0 49 37">
    <path fill="#6D6D6D" fill-rule="evenodd" d="M24.5 0c-3.812 0-7.645 1.464-10.552 4.39-2.162 2.177-3.473 4.877-4.028 7.692C4.279 13.184 0 18.143 0 24.131c0 6.792 5.503 12.333 12.25 12.333h26.098C44.22 36.464 49 31.653 49 25.739c0-5.581-4.27-10.125-9.687-10.624.025-3.882-1.344-7.772-4.277-10.725C32.13 1.466 28.312 0 24.5 0zm0 3.217c3.003 0 5.977 1.125 8.272 3.436 2.653 2.67 3.775 6.299 3.362 9.77-.057.457.083.917.386 1.263.302.346.737.545 1.195.546h.633c4.158 0 7.456 3.32 7.456 7.507 0 4.187-3.298 7.507-7.456 7.507H12.25c-5.02 0-9.054-4.062-9.054-9.116 0-4.772 3.605-8.66 8.222-9.082.746-.073 1.341-.659 1.431-1.408.294-2.55 1.415-5.027 3.362-6.987 2.294-2.31 5.286-3.436 8.289-3.436zM23.418 13.29c.268-.247.55-.42 1.082-.42.533 0 .765.128 1.082.42l5.858 5.362c.615.571.73 1.658.1 2.279-.597.59-1.643.666-2.263.1l-3.18-2.915V28.42c0 .889-.714 1.609-1.597 1.609s-1.598-.72-1.598-1.609V18.115l-3.179 2.915c-.62.566-1.699.52-2.263-.1-.565-.621-.577-1.647.1-2.28l5.858-5.361z" clip-rule="evenodd"/>
</svg>
