<svg xmlns="http://www.w3.org/2000/svg" width="54" height="54" fill="none" viewBox="0 0 54 54">
    <circle cx="27" cy="27" r="27" fill="#E02020"/>
    <path fill="#fff" fill-rule="evenodd" d="M20.841 26.382c-1.095 0-1.983.888-1.982 1.983v2.195c0 .475-.19.932-.526 1.268-.336.336-.792.525-1.267.524h-5.812c-.296 0-.537-.24-.537-.536v-.304c0-2.865 1.433-5.542 3.817-7.131 7.549-5.033 17.383-5.032 24.931 0 2.385 1.59 3.817 4.265 3.817 7.131v.303c0 .297-.24.538-.537.537h-5.811c-.476 0-.932-.188-1.268-.525-.336-.336-.525-.792-.525-1.267v-2.195c0-1.095-.888-1.983-1.983-1.983H20.841z" clip-rule="evenodd"/>
</svg>
