<svg xmlns="http://www.w3.org/2000/svg" width="44" height="44" fill="none" viewBox="0 0 44 44">
    <path fill="#fff" fill-rule="evenodd" d="M34.63 15.6c-.672-.371-1.518-.4-2.188 0l-3.18 1.771v-.714C29.262 15.2 28.038 14 26.55 14H10.712C9.226 14 8 15.2 8 16.657v10.2c0 1.457 1.225 2.657 2.713 2.657H26.55c1.488 0 2.712-1.2 2.712-2.657v-.714l3.18 1.771c.35.2.729.286 1.079.286.379 0 .758-.086 1.079-.286.67-.4 1.08-1.085 1.08-1.857v-8.6c.028-.771-.38-1.457-1.05-1.857zm-7.263 11.286c0 .428-.38.8-.817.8H10.712c-.437 0-.816-.372-.816-.8V16.657c0-.428.379-.8.816-.8H26.55c.438 0 .817.372.817.8v10.229zm6.325-.567c.056-.05.12-.11.12-.233v-8.629c0-.143-.087-.228-.145-.257-.059-.029-.175-.057-.292 0l-4.113 2.343v4.486l4.113 2.314c.146.057.233.028.292 0l.025-.024z" clip-rule="evenodd"/>
    <path fill="#43C43F" d="M22.166 21.188l-4.52-2.6c-.671-.4-1.517.085-1.517.857v5.2c0 .771.846 1.228 1.517.857l4.52-2.6c.671-.4.671-1.314 0-1.714z"/>
</svg>
