<svg xmlns="http://www.w3.org/2000/svg" width="95" height="95" fill="none" viewBox="0 0 95 95">
    <rect width="71" height="71" x="12" y="12" fill="#43C43F" rx="35.5"/>
    <path fill="#fff" d="M39.305 45.75l2.367-5.125h2.562l-3.734 7.25V52h-2.383v-4.125l-3.734-7.25h2.57l2.352 5.125zm9.195 6.406c-1.24 0-2.25-.38-3.031-1.14-.776-.76-1.164-1.774-1.164-3.04v-.218c0-.85.164-1.607.492-2.274.328-.672.792-1.187 1.39-1.547.605-.364 1.292-.546 2.063-.546 1.156 0 2.065.364 2.727 1.093.666.73 1 1.763 1 3.102v.922h-5.383c.073.552.291.995.656 1.328.37.333.836.5 1.398.5.87 0 1.55-.315 2.04-.945l1.109 1.242c-.339.479-.797.854-1.375 1.125-.578.265-1.219.398-1.922.398zm-.258-6.937c-.448 0-.812.15-1.094.453-.276.302-.453.734-.53 1.297h3.14v-.18c-.01-.5-.146-.885-.406-1.156-.26-.276-.63-.414-1.11-.414zm9.602 4.445c0-.276-.138-.492-.414-.648-.271-.162-.709-.305-1.313-.43-2.01-.422-3.015-1.276-3.015-2.563 0-.75.31-1.375.93-1.875.624-.505 1.44-.757 2.445-.757 1.073 0 1.93.252 2.57.757.646.506.969 1.162.969 1.97h-2.258c0-.324-.104-.59-.313-.798-.208-.213-.534-.32-.976-.32-.38 0-.675.086-.883.258-.208.172-.313.39-.313.656 0 .25.118.453.352.61.24.15.64.283 1.203.398.563.11 1.037.234 1.422.375 1.193.437 1.79 1.195 1.79 2.273 0 .771-.332 1.396-.993 1.875-.662.474-1.516.711-2.563.711-.708 0-1.338-.125-1.89-.375-.547-.255-.977-.601-1.29-1.039-.312-.442-.468-.92-.468-1.43h2.14c.021.402.17.709.446.922.276.214.646.32 1.11.32.432 0 .757-.08.976-.242.224-.166.336-.382.336-.648z"/>
</svg>
