<svg xmlns="http://www.w3.org/2000/svg" width="17" height="22" fill="none" viewBox="0 0 17 22">
    <path fill="#414141" d="M8.43 13.192v-.453.453c-.444 0-.805.353-.805.785 0 .324.212.619.527.732l.279.1.278-.1c.315-.114.526-.409.526-.732 0-.433-.361-.785-.805-.785z"/>
    <path fill="#414141" fill-rule="evenodd" d="M2.025 8.677h12.75c1.062.063 1.904.92 1.904 1.97v8.681c.003 1.092-.905 1.977-2.025 1.977l-12.624.008c-1.12 0-2.03-.886-2.03-1.978v-8.679c-.002-1.091.906-1.98 2.025-1.98zm7.313 9.264l-.002-2.526c.507-.303.83-.848.83-1.439-.002-.932-.78-1.691-1.736-1.691-.958 0-1.735.76-1.735 1.693 0 .59.324 1.135.83 1.438l.003 2.526h1.81z" clip-rule="evenodd"/>
    <path fill="#414141" d="M3.822 7.793c.435 0 .788-.345.788-.77l-.001-1.262C4.608 3.756 6.28 2.124 8.336 2.123c2.056-.001 3.73 1.63 3.732 3.634v1.268c.001.424.354.768.789.768h.6c.436 0 .789-.345.789-.769l-.002-1.268C14.242 2.58 11.593-.002 8.335 0 5.079.002 2.43 2.586 2.433 5.762v1.263c.001.424.354.768.789.768h.601z"/>
</svg>
